# xmcd
#
# Track frame offsets: 
#        150
#        40332
#        62291
#        74751
#        97954
#        122217
#        135321
#        156360
#
# Disc length: 2221 seconds
#
# Revision: 0
# Processed by: cddbd v1.5.2PL0 Copyright (c) Steve Scherf et al.
# Submitted via: ExactAudioCopy v0.95b4
#
DISCID=6b08ab08
DTITLE=Timo Tolonen - Haja-Asutusalue
DYEAR=2006
DGENRE=
TTITLE0=Hyv‰ Naapuri
TTITLE1=Avullasi Valheeni Todeksi Saan
TTITLE2=Paniikki Tivolissa
TTITLE3=Kuuletko Minua T‰‰lt‰
TTITLE4=Muka
TTITLE5=Tuomiop‰iv‰
TTITLE6=Muistojen S‰vel
TTITLE7=Muka
EXTD=
EXTT0=
EXTT1=
EXTT2=
EXTT3=
EXTT4=
EXTT5=
EXTT6=
EXTT7=
PLAYORDER=
